<svg xmlns="http://www.w3.org/2000/svg" viewBox="0 0 365.47 320.04"><defs><style>.a,.b{fill:#fff;}.a{fill-rule:evenodd;}</style></defs><title>Asset 2</title><path class="a" d="M182.73,81.48a22,22,0,1,0-21.94-22A22,22,0,0,0,182.73,81.48Z"/><path class="a" d="M33.18,211.32a14.21,14.21,0,1,1,14.21,14.2A14.2,14.2,0,0,1,33.18,211.32Z"/><circle class="b" cx="80.65" cy="115.65" r="16.7"/><path class="a" d="M123.82,73a20.75,20.75,0,1,1-11.3,27.08A20.75,20.75,0,0,1,123.82,73Z"/><path class="a" d="M47.22,159.44a19.94,19.94,0,1,1,11.1,25.93A19.94,19.94,0,0,1,47.22,159.44Z"/><path class="a" d="M97.62,317.61a11.87,11.87,0,1,1,16.64-2.24A11.87,11.87,0,0,1,97.62,317.61Z"/><path class="a" d="M43.24,81.74a12.9,12.9,0,1,1,0,18.25A12.9,12.9,0,0,1,43.24,81.74Z"/><circle class="b" cx="11.77" cy="211.32" r="11.77" transform="translate(-198.71 189.08) rotate(-80.78)"/><path class="a" d="M49.44,259.1a17.65,17.65,0,1,1,22.89,9.95A17.66,17.66,0,0,1,49.44,259.1Z"/><path class="a" d="M46,316.38A9.49,9.49,0,1,1,59.35,318,9.48,9.48,0,0,1,46,316.38ZM67,299.8a11.45,11.45,0,1,0,1.89-16.08A11.44,11.44,0,0,0,67,299.8Z"/><path class="a" d="M332.28,211.32a14.2,14.2,0,1,0-14.2,14.2A14.2,14.2,0,0,0,332.28,211.32Z"/><circle class="b" cx="284.81" cy="115.65" r="16.7"/><path class="a" d="M241.65,73a20.75,20.75,0,1,0,11.29,27.08A20.76,20.76,0,0,0,241.65,73Z"/><path class="a" d="M318.24,159.44a19.94,19.94,0,1,0-11.1,25.93A19.93,19.93,0,0,0,318.24,159.44Z"/><path class="a" d="M267.85,317.61a11.88,11.88,0,1,0-16.65-2.24A11.87,11.87,0,0,0,267.85,317.61Z"/><path class="a" d="M322.23,81.74a12.9,12.9,0,1,0,0,18.25A12.9,12.9,0,0,0,322.23,81.74Z"/><circle class="b" cx="353.7" cy="211.32" r="11.77" transform="translate(-29.28 59.39) rotate(-9.22)"/><path class="a" d="M316,259.1a17.65,17.65,0,1,0-22.88,9.95A17.64,17.64,0,0,0,316,259.1Z"/><path class="a" d="M319.45,316.38A9.49,9.49,0,1,0,306.12,318a9.49,9.49,0,0,0,13.33-1.57Zm-21-16.58a11.45,11.45,0,1,1-1.89-16.08A11.45,11.45,0,0,1,298.44,299.8Z"/><path class="a" d="M207.37,303.45a94.81,94.81,0,0,0,18.68-7.17,24.35,24.35,0,0,1,21.68-25.47,9.32,9.32,0,1,0,15.26-10,9.24,9.24,0,0,0-4.68-2.53,24.37,24.37,0,0,1,9.28-34.34,13.87,13.87,0,1,0-.24-25.07,29.16,29.16,0,0,1-13.71-36.57c.28-.73.6-1.44.93-2.13A15.08,15.08,0,1,0,236,138.87a31.44,31.44,0,0,1-21.25-.67c-14.07-5.55-16.93-13.72-16.93-26.27a15.09,15.09,0,1,0-30.17,0c0,12.55-2.87,20.72-16.93,26.27a31.47,31.47,0,0,1-21.26.67,15.09,15.09,0,1,0-18.57,21.27c.34.69.65,1.4.94,2.13a29.16,29.16,0,0,1-13.72,36.57,13.87,13.87,0,1,0-.24,25.07,24.36,24.36,0,0,1,9.29,34.34,9.2,9.2,0,0,0-4.68,2.53A9.32,9.32,0,1,0,115.66,274a9.17,9.17,0,0,0,2.07-3.15,24.38,24.38,0,0,1,21.69,25.47,94.81,94.81,0,0,0,18.68,7.17c1.81-26.33-18.52-38.6-30.45-57.56a65,65,0,1,1,110.17,0C225.89,264.85,205.56,277.12,207.37,303.45Z"/><path class="a" d="M182.73,26.84a13.42,13.42,0,1,0-13.42-13.42A13.45,13.45,0,0,0,182.73,26.84Z"/></svg>