<svg xmlns="http://www.w3.org/2000/svg" viewBox="0 0 398.99 398.99"><defs><style>.a{fill:#fff;}</style></defs><title>Asset 3</title><path class="a" d="M380.89,235.57a9.14,9.14,0,1,0,10.74-7.17,9.13,9.13,0,0,0-10.74,7.17m-27.61,66.68a9.13,9.13,0,1,0,12.66-2.52,9.13,9.13,0,0,0-12.66,2.52m-12.67-25.77a17.12,17.12,0,1,0-9.27-22.37,17.12,17.12,0,0,0,9.27,22.37m-26.95-99.82a22.84,22.84,0,1,0,22.84,22.83,22.83,22.83,0,0,0-22.84-22.83m-.25-24.35a9.14,9.14,0,1,0-4.94,11.93,9.13,9.13,0,0,0,4.94-11.93m-16.88,87.38a9.14,9.14,0,1,0,11.94-4.94,9.13,9.13,0,0,0-11.94,4.94m10.33,86.55a13.7,13.7,0,1,0,0-19.38,13.71,13.71,0,0,0,0,19.38m-7.13,39.7a9.13,9.13,0,1,0,2.52-12.66,9.12,9.12,0,0,0-2.52,12.66m-35.65-69.57a22.83,22.83,0,1,0,0-32.29,22.84,22.84,0,0,0,0,32.29M239.69,102.45a9.13,9.13,0,1,0-4.95-11.93,9.13,9.13,0,0,0,4.95,11.93m0,194.08a9.14,9.14,0,1,0,11.93,5,9.14,9.14,0,0,0-11.93-5m16.54-139.07a17.12,17.12,0,1,0,22.37,9.26,17.12,17.12,0,0,0-22.37-9.26m13.1,52.43a17.12,17.12,0,1,0,9.27,22.37,17.11,17.11,0,0,0-9.27-22.37M244.84,353.72a17.12,17.12,0,1,0,9.27-22.38,17.12,17.12,0,0,0-9.27,22.38M228.4,391.63a9.14,9.14,0,1,0,7.18-10.74,9.13,9.13,0,0,0-7.18,10.74m3.86-113a17.12,17.12,0,1,0-22.37-9.27,17.12,17.12,0,0,0,22.37,9.27M185.79,365a13.7,13.7,0,1,0,13.7-13.7,13.71,13.71,0,0,0-13.7,13.7m-9.13-51.38a22.84,22.84,0,1,0,22.83-22.83,22.84,22.84,0,0,0-22.83,22.83m-9.94-35.06a17.12,17.12,0,1,0-9.26-22.37,17.13,17.13,0,0,0,9.26,22.37m-37.07-89.5a17.12,17.12,0,1,0-9.27-22.38,17.13,17.13,0,0,0,9.27,22.38m-9.27,43.16a17.13,17.13,0,1,0,9.27-22.37,17.13,17.13,0,0,0-9.27,22.37m27-134.75a9.14,9.14,0,1,0,4.95-11.93,9.14,9.14,0,0,0-4.95,11.93m11.94,199a9.14,9.14,0,1,0,4.94,11.94,9.14,9.14,0,0,0-4.94-11.94m-6.63,91.54a9.14,9.14,0,1,0,10.74-7.18,9.14,9.14,0,0,0-10.74,7.18m-30.16-47.46a17.12,17.12,0,1,0,22.37-9.27,17.11,17.11,0,0,0-22.37,9.27m-19.89-44.24a22.83,22.83,0,1,0,0-32.29,22.84,22.84,0,0,0,0,32.29m5.54-96.88a22.84,22.84,0,1,0-22.84,22.84,22.84,22.84,0,0,0,22.84-22.84m-5.71-40.19a9.13,9.13,0,1,0-11.93,4.94,9.14,9.14,0,0,0,11.93-4.94M85.58,246.68a9.13,9.13,0,1,0,4.94-11.93,9.13,9.13,0,0,0-4.94,11.93M84.07,355.8a9.13,9.13,0,1,0,12.67-2.52,9.13,9.13,0,0,0-12.67,2.52M72.75,306.86a13.7,13.7,0,1,0,19.37,0,13.71,13.71,0,0,0-19.37,0M58.38,276.48A17.12,17.12,0,1,0,36,267.21a17.14,17.14,0,0,0,22.38,9.27M30.52,312.4A9.13,9.13,0,1,0,33,299.73a9.14,9.14,0,0,0-2.52,12.67m-12.43-149a9.13,9.13,0,1,0-10.74,7.18,9.13,9.13,0,0,0,10.74-7.18m0,72.16a9.13,9.13,0,1,0-7.17,10.74,9.13,9.13,0,0,0,7.17-10.74M34,185.79a13.7,13.7,0,1,0,13.7,13.7A13.7,13.7,0,0,0,34,185.79m11.76-89A9.13,9.13,0,1,0,33,99.26a9.14,9.14,0,0,0,12.67-2.52M58.38,122.5a17.13,17.13,0,1,0,9.27,22.38,17.13,17.13,0,0,0-9.27-22.38M92.12,72.75a13.7,13.7,0,1,0,0,19.37,13.69,13.69,0,0,0,0-19.37M99.26,33a9.13,9.13,0,1,0-2.52,12.67A9.14,9.14,0,0,0,99.26,33m35.65,69.58a22.83,22.83,0,1,0,0,32.29,22.83,22.83,0,0,0,0-32.29m19.24-57.35a17.12,17.12,0,1,0-9.27,22.37,17.13,17.13,0,0,0,9.27-22.37M170.59,7.35a9.14,9.14,0,1,0-7.18,10.74,9.14,9.14,0,0,0,7.18-10.74m-3.87,113a17.13,17.13,0,1,0,22.38,9.27,17.13,17.13,0,0,0-22.38-9.27M213.19,34a13.7,13.7,0,1,0-13.7,13.7A13.7,13.7,0,0,0,213.19,34m9.14,51.37a22.84,22.84,0,1,0-22.84,22.84,22.84,22.84,0,0,0,22.84-22.84m9.93,35.06a17.13,17.13,0,1,0,9.27,22.38,17.11,17.11,0,0,0-9.27-22.38M246.32,10.92a9.14,9.14,0,1,0-10.74,7.17,9.13,9.13,0,0,0,10.74-7.17m30.16,47.46a17.12,17.12,0,1,0-22.37,9.26,17.13,17.13,0,0,0,22.37-9.26m19.89,44.24a22.83,22.83,0,1,0,0,32.29,22.83,22.83,0,0,0,0-32.29m18.55-59.43a9.13,9.13,0,1,0-12.67,2.52,9.14,9.14,0,0,0,12.67-2.52m11.32,48.93a13.7,13.7,0,1,0-19.38,0,13.69,13.69,0,0,0,19.38,0m14.37,30.38A17.13,17.13,0,1,0,363,131.77a17.13,17.13,0,0,0-22.37-9.27m27.85-35.91a9.13,9.13,0,1,0-2.52,12.67,9.13,9.13,0,0,0,2.52-12.67m10.28,112.9a13.7,13.7,0,1,0-13.7,13.7,13.71,13.71,0,0,0,13.7-13.7m20.07-39.64a9.14,9.14,0,1,0-7.18,10.74,9.14,9.14,0,0,0,7.18-10.74"/></svg>