<svg xmlns="http://www.w3.org/2000/svg" viewBox="0 0 443.6 304.82"><title>orbital-logomark</title><path d="M360.27,211.24a150.48,150.48,0,0,1-276.81.31" style="fill:none;stroke:#333334;stroke-miterlimit:10;stroke-width:4px"/><path d="M75.93,189.25a150.41,150.41,0,1,1,291.77-.11" style="fill:none;stroke:#333334;stroke-miterlimit:10;stroke-width:4px"/><ellipse cx="221.8" cy="152.41" rx="90.66" ry="150.41" style="fill:none;stroke:#333334;stroke-miterlimit:10;stroke-width:4px"/><line x1="221.8" y1="229.21" x2="221.8" y2="302.82" style="fill:none;stroke:#333334;stroke-miterlimit:10;stroke-width:4px"/><line x1="221.8" y1="2" x2="221.8" y2="205.5" style="fill:none;stroke:#333334;stroke-miterlimit:10;stroke-width:4px"/><path d="M372.21,152.41c0,19.53-67.34,35.37-150.41,35.37S71.39,171.94,71.39,152.41" style="fill:none;stroke:#333334;stroke-miterlimit:10;stroke-width:4px"/><path d="M343.77,64.31a8.49,8.49,0,0,1,1.92,5.14c0,16.09-55.47,29.13-123.89,29.13S97.91,85.54,97.91,69.45A8.65,8.65,0,0,1,100,64.07" style="fill:none;stroke:#333334;stroke-miterlimit:10;stroke-width:4px"/><path d="M343.32,241.08c-11.27,13.36-61.39,23.43-121.52,23.43-59.92,0-109.91-10-121.4-23.3" style="fill:none;stroke:#333334;stroke-miterlimit:10;stroke-width:4px"/><path d="M67.21,108.74c-1.93.67-3.81,1.36-5.64,2.05" style="fill:none;stroke:#333334;stroke-miterlimit:10;stroke-width:4px"/><path d="M52.57,114.48c-12.34,5.43-22.09,11.48-28.71,18" style="fill:none;stroke:#333334;stroke-miterlimit:10;stroke-width:4px;stroke-dasharray:9.724298477172852,9.724298477172852"/><path d="M20.58,136a33.55,33.55,0,0,0-3.4,4.94" style="fill:none;stroke:#333334;stroke-miterlimit:10;stroke-width:4px"/><circle cx="14" cy="152.41" r="12" style="fill:none;stroke:#333334;stroke-miterlimit:10;stroke-width:4px"/><path d="M75.7,116.64a12.08,12.08,0,1,1,7.58-22.87" style="fill:none;stroke:#333334;stroke-miterlimit:10;stroke-width:4px"/><path d="M367.34,116.64a12.08,12.08,0,0,0-2.94-23.8,11.9,11.9,0,0,0-4.64.93" style="fill:none;stroke:#333334;stroke-miterlimit:10;stroke-width:4px"/><path d="M426.29,140.73a35,35,0,0,0-3.44-4.9" style="fill:none;stroke:#333334;stroke-miterlimit:10;stroke-width:4px"/><path d="M415.86,129c-7.37-6-17.48-11.63-29.87-16.64" style="fill:none;stroke:#333334;stroke-miterlimit:10;stroke-width:4px;stroke-dasharray:9.802557945251465,9.802557945251465"/><path d="M381.42,110.56q-2.76-1-5.65-2" style="fill:none;stroke:#333334;stroke-miterlimit:10;stroke-width:4px"/><path d="M375.77,196.3q2.89-1,5.65-2" style="fill:none;stroke:#333334;stroke-miterlimit:10;stroke-width:4px"/><path d="M390.46,190.6c12.37-5.39,22.18-11.4,28.89-17.86" style="fill:none;stroke:#333334;stroke-miterlimit:10;stroke-width:4px;stroke-dasharray:9.750490188598633,9.750490188598633"/><path d="M422.69,169.19a34.51,34.51,0,0,0,3.47-4.88" style="fill:none;stroke:#333334;stroke-miterlimit:10;stroke-width:4px"/><path d="M234.08,217.66l6-.14" style="fill:none;stroke:#333334;stroke-miterlimit:10;stroke-width:4px"/><path d="M252,217.08c32.75-1.5,63-5.4,89-11.12" style="fill:none;stroke:#333334;stroke-miterlimit:10;stroke-width:4px;stroke-dasharray:11.965818405151367,11.965818405151367"/><path d="M346.82,204.62c2-.46,3.91-.94,5.82-1.43" style="fill:none;stroke:#333334;stroke-miterlimit:10;stroke-width:4px"/><path d="M90.32,203q2.87.74,5.82,1.44" style="fill:none;stroke:#333334;stroke-miterlimit:10;stroke-width:4px"/><path d="M107.94,207.09c26.43,5.46,57.05,9.07,90,10.25" style="fill:none;stroke:#333334;stroke-miterlimit:10;stroke-width:4px;stroke-dasharray:12.092120170593262,12.092120170593262"/><path d="M204,217.53c2,.05,4,.1,6,.13" style="fill:none;stroke:#333334;stroke-miterlimit:10;stroke-width:4px"/><path d="M17.17,163.86a34.91,34.91,0,0,0,3.41,4.93" style="fill:none;stroke:#333334;stroke-miterlimit:10;stroke-width:4px"/><path d="M27.5,175.64c7.3,6,17.35,11.63,29.67,16.66" style="fill:none;stroke:#333334;stroke-miterlimit:10;stroke-width:4px;stroke-dasharray:9.756525039672852,9.756525039672852"/><path d="M61.72,194.09c1.83.69,3.71,1.38,5.64,2" style="fill:none;stroke:#333334;stroke-miterlimit:10;stroke-width:4px"/><circle cx="429.6" cy="152.41" r="12" style="fill:none;stroke:#333334;stroke-miterlimit:10;stroke-width:4px"/><circle cx="221.86" cy="217.77" r="12" style="fill:none;stroke:#333334;stroke-miterlimit:10;stroke-width:4px"/><circle cx="364.4" cy="200.55" r="12" style="fill:none;stroke:#333334;stroke-miterlimit:10;stroke-width:4px"/><circle cx="78.63" cy="200.55" r="12" style="fill:none;stroke:#333334;stroke-miterlimit:10;stroke-width:4px"/></svg>