<svg xmlns="http://www.w3.org/2000/svg" viewBox="0 0 512 512"><title>eip_modules</title><line x1="350.46" y1="170.18" x2="408.65" y2="151.63" style="fill:none;stroke:#333334;stroke-miterlimit:10;stroke-width:4px"/><polyline points="182.05 177.75 254.36 200.8 327.59 177.47" style="fill:none;stroke:#333334;stroke-miterlimit:10;stroke-width:4px"/><line x1="100.08" y1="151.63" x2="158.99" y2="170.41" style="fill:none;stroke:#333334;stroke-miterlimit:10;stroke-width:4px"/><polyline points="196.22 120.98 254.36 102.45 313.12 121.18" style="fill:none;stroke:#333334;stroke-miterlimit:10;stroke-width:4px"/><line x1="254.36" y1="321.55" x2="254.36" y2="411.02" style="fill:none;stroke:#333334;stroke-miterlimit:10;stroke-width:4px"/><line x1="254.36" y1="200.8" x2="254.36" y2="297.45" style="fill:none;stroke:#333334;stroke-miterlimit:10;stroke-width:4px"/><polyline points="100.08 248.38 100.08 151.63 254.36 102.45" style="fill:none;stroke:#333334;stroke-miterlimit:10;stroke-width:4px"/><polyline points="159.17 380.7 100.08 361.85 100.08 272.38" style="fill:none;stroke:#333334;stroke-miterlimit:10;stroke-width:4px"/><polyline points="327.58 387.67 254.31 411.02 182.04 387.99" style="fill:none;stroke:#333334;stroke-miterlimit:10;stroke-width:4px"/><polyline points="408.6 272.38 408.6 361.85 350.45 380.38" style="fill:none;stroke:#333334;stroke-miterlimit:10;stroke-width:4px"/><polyline points="408.6 248.38 408.6 151.63 254.36 102.45" style="fill:none;stroke:#333334;stroke-miterlimit:10;stroke-width:4px"/><line x1="327.59" y1="170.3" x2="321.87" y2="168.48" style="fill:none;stroke:#333334;stroke-miterlimit:10;stroke-width:4px"/><line x1="310.97" y1="165" x2="207.38" y2="131.98" style="fill:none;stroke:#333334;stroke-miterlimit:10;stroke-width:4px;stroke-dasharray:11.444131851196289,11.444131851196289"/><line x1="201.93" y1="130.25" x2="196.22" y2="128.42" style="fill:none;stroke:#333334;stroke-miterlimit:10;stroke-width:4px"/><line x1="242.74" y1="305.86" x2="237.02" y2="304.04" style="fill:none;stroke:#333334;stroke-miterlimit:10;stroke-width:4px"/><line x1="226.12" y1="300.57" x2="122.63" y2="267.58" style="fill:none;stroke:#333334;stroke-miterlimit:10;stroke-width:4px;stroke-dasharray:11.434425354003906,11.434425354003906"/><line x1="117.18" y1="265.85" x2="111.46" y2="264.02" style="fill:none;stroke:#333334;stroke-miterlimit:10;stroke-width:4px"/><line x1="398.95" y1="263.46" x2="393.23" y2="265.28" style="fill:none;stroke:#333334;stroke-miterlimit:10;stroke-width:4px"/><line x1="382.16" y1="268.81" x2="276.99" y2="302.33" style="fill:none;stroke:#333334;stroke-miterlimit:10;stroke-width:4px;stroke-dasharray:11.619344711303711,11.619344711303711"/><line x1="271.46" y1="304.09" x2="265.74" y2="305.91" style="fill:none;stroke:#333334;stroke-miterlimit:10;stroke-width:4px"/><line x1="339.07" y1="185.81" x2="339.07" y2="191.81" style="fill:none;stroke:#333334;stroke-miterlimit:10;stroke-width:4px"/><line x1="339.07" y1="203.44" x2="339.07" y2="360.45" style="fill:none;stroke:#333334;stroke-miterlimit:10;stroke-width:4px;stroke-dasharray:11.629814147949219,11.629814147949219"/><line x1="339.07" y1="366.26" x2="339.07" y2="372.26" style="fill:none;stroke:#333334;stroke-miterlimit:10;stroke-width:4px"/><line x1="182.05" y1="170.33" x2="187.76" y2="168.51" style="fill:none;stroke:#333334;stroke-miterlimit:10;stroke-width:4px"/><line x1="198.64" y1="165.04" x2="301.96" y2="132.11" style="fill:none;stroke:#333334;stroke-miterlimit:10;stroke-width:4px;stroke-dasharray:11.41537094116211,11.41537094116211"/><line x1="307.4" y1="130.37" x2="313.12" y2="128.55" style="fill:none;stroke:#333334;stroke-miterlimit:10;stroke-width:4px"/><line x1="170.66" y1="185.96" x2="170.66" y2="191.96" style="fill:none;stroke:#333334;stroke-miterlimit:10;stroke-width:4px"/><line x1="170.66" y1="203.57" x2="170.66" y2="360.37" style="fill:none;stroke:#333334;stroke-miterlimit:10;stroke-width:4px;stroke-dasharray:11.614656448364258,11.614656448364258"/><line x1="170.66" y1="366.18" x2="170.66" y2="372.18" style="fill:none;stroke:#333334;stroke-miterlimit:10;stroke-width:4px"/><circle cx="254.32" cy="309.56" r="12" style="fill:none;stroke:#333334;stroke-linecap:round;stroke-miterlimit:10;stroke-width:4px"/><circle cx="410.7" cy="260.38" r="12" style="fill:none;stroke:#333334;stroke-linecap:round;stroke-miterlimit:10;stroke-width:4px"/><circle cx="100.03" cy="260.38" r="12" style="fill:none;stroke:#333334;stroke-linecap:round;stroke-miterlimit:10;stroke-width:4px"/><path d="M173.3,128.29A12,12,0,0,1,196.17,121" style="fill:none;stroke:#333334;stroke-linecap:round;stroke-miterlimit:10;stroke-width:4px"/><path d="M313.12,121.18a12,12,0,0,1,22.93,7.1" style="fill:none;stroke:#333334;stroke-linecap:round;stroke-miterlimit:10;stroke-width:4px"/><circle cx="339.07" cy="173.96" r="12" style="fill:none;stroke:#333334;stroke-linecap:round;stroke-miterlimit:10;stroke-width:4px"/><circle cx="339.07" cy="384.18" r="12" style="fill:none;stroke:#333334;stroke-linecap:round;stroke-miterlimit:10;stroke-width:4px"/><circle cx="170.66" cy="173.96" r="12" style="fill:none;stroke:#333334;stroke-linecap:round;stroke-miterlimit:10;stroke-width:4px"/><circle cx="170.66" cy="384.18" r="12" style="fill:none;stroke:#333334;stroke-linecap:round;stroke-miterlimit:10;stroke-width:4px"/></svg>