<svg xmlns="http://www.w3.org/2000/svg" viewBox="0 0 338.68 312.77"><title>link-logomark</title><line x1="264.43" y1="69.83" x2="322.62" y2="51.28" style="fill:none;stroke:#333334;stroke-miterlimit:10;stroke-width:4px"/><polyline points="96.02 77.41 168.34 100.45 241.56 77.12" style="fill:none;stroke:#333334;stroke-miterlimit:10;stroke-width:4px"/><line x1="14.05" y1="51.28" x2="72.96" y2="70.06" style="fill:none;stroke:#333334;stroke-miterlimit:10;stroke-width:4px"/><polyline points="110.19 20.63 168.34 2.1 227.09 20.83" style="fill:none;stroke:#333334;stroke-miterlimit:10;stroke-width:4px"/><line x1="168.34" y1="221.21" x2="168.34" y2="310.67" style="fill:none;stroke:#333334;stroke-miterlimit:10;stroke-width:4px"/><line x1="168.34" y1="100.45" x2="168.34" y2="197.1" style="fill:none;stroke:#333334;stroke-miterlimit:10;stroke-width:4px"/><polyline points="14.05 148.03 14.05 51.28 168.34 2.1" style="fill:none;stroke:#333334;stroke-miterlimit:10;stroke-width:4px"/><polyline points="73.15 280.35 14.05 261.5 14.05 172.03" style="fill:none;stroke:#333334;stroke-miterlimit:10;stroke-width:4px"/><polyline points="241.56 287.32 168.29 310.68 96.02 287.64" style="fill:none;stroke:#333334;stroke-miterlimit:10;stroke-width:4px"/><polyline points="322.57 172.03 322.57 261.5 264.43 280.03" style="fill:none;stroke:#333334;stroke-miterlimit:10;stroke-width:4px"/><polyline points="322.57 148.03 322.57 51.28 168.34 2.1" style="fill:none;stroke:#333334;stroke-miterlimit:10;stroke-width:4px"/><line x1="241.56" y1="69.95" x2="235.84" y2="68.13" style="fill:none;stroke:#333334;stroke-miterlimit:10;stroke-width:4px"/><line x1="224.94" y1="64.65" x2="121.36" y2="31.64" style="fill:none;stroke:#333334;stroke-miterlimit:10;stroke-width:4px;stroke-dasharray:11.444131851196289,11.444131851196289"/><line x1="115.9" y1="29.9" x2="110.19" y2="28.08" style="fill:none;stroke:#333334;stroke-miterlimit:10;stroke-width:4px"/><line x1="156.71" y1="205.51" x2="150.99" y2="203.69" style="fill:none;stroke:#333334;stroke-miterlimit:10;stroke-width:4px"/><line x1="140.1" y1="200.22" x2="36.6" y2="167.23" style="fill:none;stroke:#333334;stroke-miterlimit:10;stroke-width:4px;stroke-dasharray:11.434425354003906,11.434425354003906"/><line x1="31.15" y1="165.5" x2="25.44" y2="163.67" style="fill:none;stroke:#333334;stroke-miterlimit:10;stroke-width:4px"/><line x1="312.92" y1="163.11" x2="307.21" y2="164.93" style="fill:none;stroke:#333334;stroke-miterlimit:10;stroke-width:4px"/><line x1="296.13" y1="168.46" x2="190.96" y2="201.98" style="fill:none;stroke:#333334;stroke-miterlimit:10;stroke-width:4px;stroke-dasharray:11.619344711303711,11.619344711303711"/><line x1="185.43" y1="203.74" x2="179.71" y2="205.56" style="fill:none;stroke:#333334;stroke-miterlimit:10;stroke-width:4px"/><line x1="253.04" y1="85.46" x2="253.04" y2="91.46" style="fill:none;stroke:#333334;stroke-miterlimit:10;stroke-width:4px"/><line x1="253.04" y1="103.09" x2="253.04" y2="260.1" style="fill:none;stroke:#333334;stroke-miterlimit:10;stroke-width:4px;stroke-dasharray:11.629814147949219,11.629814147949219"/><line x1="253.04" y1="265.91" x2="253.04" y2="271.91" style="fill:none;stroke:#333334;stroke-miterlimit:10;stroke-width:4px"/><line x1="96.02" y1="69.98" x2="101.74" y2="68.16" style="fill:none;stroke:#333334;stroke-miterlimit:10;stroke-width:4px"/><line x1="112.61" y1="64.69" x2="215.94" y2="31.76" style="fill:none;stroke:#333334;stroke-miterlimit:10;stroke-width:4px;stroke-dasharray:11.41537094116211,11.41537094116211"/><line x1="221.37" y1="30.02" x2="227.09" y2="28.2" style="fill:none;stroke:#333334;stroke-miterlimit:10;stroke-width:4px"/><line x1="84.63" y1="85.61" x2="84.63" y2="91.61" style="fill:none;stroke:#333334;stroke-miterlimit:10;stroke-width:4px"/><line x1="84.63" y1="103.22" x2="84.63" y2="260.02" style="fill:none;stroke:#333334;stroke-miterlimit:10;stroke-width:4px;stroke-dasharray:11.614656448364258,11.614656448364258"/><line x1="84.63" y1="265.83" x2="84.63" y2="271.83" style="fill:none;stroke:#333334;stroke-miterlimit:10;stroke-width:4px"/><circle cx="168.29" cy="209.21" r="12" style="fill:none;stroke:#333334;stroke-linecap:round;stroke-miterlimit:10;stroke-width:4px"/><circle cx="324.68" cy="160.03" r="12" style="fill:none;stroke:#333334;stroke-linecap:round;stroke-miterlimit:10;stroke-width:4px"/><circle cx="14" cy="160.03" r="12" style="fill:none;stroke:#333334;stroke-linecap:round;stroke-miterlimit:10;stroke-width:4px"/><path d="M87.27,27.94a12,12,0,0,1,22.87-7.29" style="fill:none;stroke:#333334;stroke-linecap:round;stroke-miterlimit:10;stroke-width:4px"/><path d="M227.09,20.83A12,12,0,0,1,250,27.93" style="fill:none;stroke:#333334;stroke-linecap:round;stroke-miterlimit:10;stroke-width:4px"/><circle cx="253.04" cy="73.61" r="12" style="fill:none;stroke:#333334;stroke-linecap:round;stroke-miterlimit:10;stroke-width:4px"/><circle cx="253.04" cy="283.83" r="12" style="fill:none;stroke:#333334;stroke-linecap:round;stroke-miterlimit:10;stroke-width:4px"/><circle cx="84.63" cy="73.61" r="12" style="fill:none;stroke:#333334;stroke-linecap:round;stroke-miterlimit:10;stroke-width:4px"/><circle cx="84.63" cy="283.83" r="12" style="fill:none;stroke:#333334;stroke-linecap:round;stroke-miterlimit:10;stroke-width:4px"/></svg>