<svg xmlns="http://www.w3.org/2000/svg" viewBox="0 0 344.15 298.04"><title>alpha-red-logomark</title><polygon points="256.95 2 87.19 2 2.31 149.02 87.19 296.04 256.95 296.04 341.84 149.02 256.95 2" style="fill:none;stroke:#333334;stroke-miterlimit:10;stroke-width:4px"/><polyline points="96.35 54 41.49 149.02 68.14 195.18" style="fill:none;stroke:#333334;stroke-miterlimit:10;stroke-width:4px"/><polyline points="292.23 167.08 237.37 262.11 127.57 262.11" style="fill:none;stroke:#333334;stroke-miterlimit:10;stroke-width:4px"/><polyline points="214.25 35.93 237.37 35.93 292.23 130.96" style="fill:none;stroke:#333334;stroke-miterlimit:10;stroke-width:4px"/><circle cx="202.25" cy="35.93" r="12" style="fill:none;stroke:#333334;stroke-linecap:round;stroke-miterlimit:10;stroke-width:4px"/><circle cx="74.13" cy="205.58" r="12" style="fill:none;stroke:#333334;stroke-linecap:round;stroke-miterlimit:10;stroke-width:4px"/><path d="M133,171.61l-5.19,3" style="fill:none;stroke:#333334;stroke-miterlimit:10;stroke-width:4px"/><path d="M121,178.53l-10.19,5.88" style="fill:none;stroke:#333334;stroke-miterlimit:10;stroke-width:4px;stroke-dasharray:7.841231346130371,7.841231346130371"/><path d="M107.39,186.37l-5.2,3-3-5.19" style="fill:none;stroke:#333334;stroke-miterlimit:10;stroke-width:4px"/><line x1="93.43" y1="174.19" x2="84.78" y2="159.21" style="fill:none;stroke:#333334;stroke-miterlimit:10;stroke-width:4px;stroke-dasharray:11.531949043273926,11.531949043273926"/><polyline points="81.89 154.22 78.89 149.02 81.89 143.82" style="fill:none;stroke:#333334;stroke-miterlimit:10;stroke-width:4px"/><line x1="87.69" y1="133.78" x2="119.58" y2="78.54" style="fill:none;stroke:#333334;stroke-miterlimit:10;stroke-width:4px;stroke-dasharray:11.597175598144531,11.597175598144531"/><polyline points="122.48 73.52 125.48 68.32 131.48 68.32" style="fill:none;stroke:#333334;stroke-miterlimit:10;stroke-width:4px"/><line x1="143.01" y1="68.32" x2="160.31" y2="68.32" style="fill:none;stroke:#333334;stroke-miterlimit:10;stroke-width:4px;stroke-dasharray:11.530037879943848,11.530037879943848"/><path d="M166.07,68.32h6v-6" style="fill:none;stroke:#333334;stroke-miterlimit:10;stroke-width:4px"/><path d="M172.07,55.53V45.33" style="fill:none;stroke:#333334;stroke-miterlimit:10;stroke-width:4px;stroke-dasharray:6.79771089553833,6.79771089553833"/><path d="M172.07,41.93v-6h-6" style="fill:none;stroke:#333334;stroke-miterlimit:10;stroke-width:4px"/><line x1="155.26" y1="35.93" x2="139.04" y2="35.93" style="fill:none;stroke:#333334;stroke-miterlimit:10;stroke-width:4px;stroke-dasharray:10.814658164978027,10.814658164978027"/><line x1="133.63" y1="35.93" x2="127.63" y2="35.93" style="fill:none;stroke:#333334;stroke-miterlimit:10;stroke-width:4px"/><polygon points="113.29 164.07 112.39 167.97 131.62 172.38 125.83 191.23 129.65 192.4 136.71 169.44 113.29 164.07" style="fill:#333334"/><line x1="117.21" y1="244.04" x2="120.21" y2="238.85" style="fill:none;stroke:#333334;stroke-miterlimit:10;stroke-width:4px"/><polyline points="122.48 234.91 125.48 229.72 131.48 229.72" style="fill:none;stroke:#333334;stroke-miterlimit:10;stroke-width:4px"/><line x1="143.08" y1="229.72" x2="206.86" y2="229.72" style="fill:none;stroke:#333334;stroke-miterlimit:10;stroke-width:4px;stroke-dasharray:11.597175598144531,11.597175598144531"/><polyline points="212.66 229.72 218.66 229.72 221.66 224.52" style="fill:none;stroke:#333334;stroke-miterlimit:10;stroke-width:4px"/><line x1="227.46" y1="214.48" x2="259.35" y2="159.24" style="fill:none;stroke:#333334;stroke-miterlimit:10;stroke-width:4px;stroke-dasharray:11.597175598144531,11.597175598144531"/><polyline points="262.25 154.22 265.25 149.02 262.25 143.82" style="fill:none;stroke:#333334;stroke-miterlimit:10;stroke-width:4px"/><line x1="256.49" y1="133.84" x2="247.84" y2="118.86" style="fill:none;stroke:#333334;stroke-miterlimit:10;stroke-width:4px;stroke-dasharray:11.531944274902344,11.531944274902344"/><polyline points="244.96 113.86 241.96 108.67 236.76 111.67" style="fill:none;stroke:#333334;stroke-miterlimit:10;stroke-width:4px"/><line x1="229.97" y1="115.59" x2="219.79" y2="121.47" style="fill:none;stroke:#333334;stroke-miterlimit:10;stroke-width:4px;stroke-dasharray:7.840256690979004,7.840256690979004"/><line x1="216.39" y1="123.43" x2="211.2" y2="126.43" style="fill:none;stroke:#333334;stroke-miterlimit:10;stroke-width:4px"/><polygon points="214.49 105.64 218.32 106.81 212.52 125.66 231.75 130.06 230.85 133.97 207.44 128.59 214.49 105.64" style="fill:#333334"/><circle cx="106.77" cy="35.93" r="20.85" style="fill:none;stroke:#333334;stroke-miterlimit:10;stroke-width:4px"/><line x1="106.77" y1="50.35" x2="106.77" y2="22.52" style="fill:none;stroke:#333334;stroke-miterlimit:10;stroke-width:6px;stroke-dasharray:6,6,1000"/><circle cx="106.78" cy="262.11" r="20.85" style="fill:none;stroke:#333334;stroke-miterlimit:10;stroke-width:4px"/><line x1="106.78" y1="276.53" x2="106.78" y2="248.7" style="fill:none;stroke:#333334;stroke-miterlimit:10;stroke-width:6px;stroke-dasharray:6,6,1000"/><circle cx="302.66" cy="149.02" r="20.85" style="fill:none;stroke:#333334;stroke-miterlimit:10;stroke-width:4px"/><line x1="302.66" y1="163.44" x2="302.66" y2="135.61" style="fill:none;stroke:#333334;stroke-miterlimit:10;stroke-width:6px;stroke-dasharray:6,6,1000"/><polygon points="185.81 125.22 158.33 125.22 144.59 149.02 158.33 172.82 185.81 172.82 199.55 149.02 185.81 125.22" style="fill:none;stroke:#333334;stroke-miterlimit:10;stroke-width:4px"/><polygon points="180.4 134.6 163.75 134.6 155.42 149.02 163.75 163.44 180.4 163.44 188.73 149.02 180.4 134.6" style="fill:none;stroke:#333334;stroke-miterlimit:10;stroke-width:4px"/></svg>