<svg xmlns="http://www.w3.org/2000/svg" viewBox="0 0 342.9 342.9"><title>recon-logomark</title><circle cx="171.45" cy="172.84" r="108.42" style="fill:none;stroke:#333334;stroke-miterlimit:10;stroke-width:4px;stroke-dasharray:12.165443420410156,12.165443420410156"/><polyline points="137.38 151.67 114.18 114.5 151.35 137.7" style="fill:none;stroke:#333334;stroke-miterlimit:10;stroke-width:4px"/><polyline points="151.35 205.84 114.18 229.03 137.38 191.87" style="fill:none;stroke:#333334;stroke-miterlimit:10;stroke-width:4px"/><polyline points="205.52 191.87 228.71 229.03 191.55 205.84" style="fill:none;stroke:#333334;stroke-miterlimit:10;stroke-width:4px"/><polyline points="191.55 137.7 228.71 114.5 205.52 151.67" style="fill:none;stroke:#333334;stroke-miterlimit:10;stroke-width:4px"/><polygon points="194.17 194.49 171.45 292.68 148.72 194.49 50.53 171.77 148.72 149.04 171.45 50.85 194.17 149.04 292.37 171.77 194.17 194.49" style="fill:none;stroke:#333334;stroke-miterlimit:10;stroke-width:4px"/><line x1="171.45" y1="183.41" x2="171.45" y2="292.68" style="fill:none;stroke:#333334;stroke-miterlimit:10;stroke-width:4px"/><line x1="171.45" y1="50.85" x2="171.45" y2="159.33" style="fill:none;stroke:#333334;stroke-miterlimit:10;stroke-width:4px"/><line x1="159.87" y1="171.77" x2="50.53" y2="171.77" style="fill:none;stroke:#333334;stroke-miterlimit:10;stroke-width:4px"/><line x1="292.36" y1="171.77" x2="184.02" y2="171.77" style="fill:none;stroke:#333334;stroke-miterlimit:10;stroke-width:4px"/><line x1="179.79" y1="180.11" x2="194.17" y2="194.49" style="fill:none;stroke:#333334;stroke-miterlimit:10;stroke-width:4px"/><line x1="148.68" y1="149" x2="163.06" y2="163.38" style="fill:none;stroke:#333334;stroke-miterlimit:10;stroke-width:4px"/><line x1="163.06" y1="180.11" x2="148.68" y2="194.49" style="fill:none;stroke:#333334;stroke-miterlimit:10;stroke-width:4px"/><line x1="194.17" y1="149" x2="179.79" y2="163.38" style="fill:none;stroke:#333334;stroke-miterlimit:10;stroke-width:4px"/><circle cx="171.91" cy="171.3" r="12" style="fill:none;stroke:#333334;stroke-miterlimit:10;stroke-width:4px"/><path d="M183.42,14.77a157.47,157.47,0,0,1,145,144.69" style="fill:none;stroke:#333334;stroke-miterlimit:10;stroke-width:4px"/><path d="M14.47,159.45a157.48,157.48,0,0,1,145-144.68" style="fill:none;stroke:#333334;stroke-miterlimit:10;stroke-width:4px"/><path d="M159.45,328.76a157.47,157.47,0,0,1-145-145.32" style="fill:none;stroke:#333334;stroke-miterlimit:10;stroke-width:4px"/><path d="M328.47,183.45a157.48,157.48,0,0,1-145,145.31" style="fill:none;stroke:#333334;stroke-miterlimit:10;stroke-width:4px"/><circle cx="328.9" cy="171.45" r="12" style="fill:none;stroke:#333334;stroke-linecap:round;stroke-miterlimit:10;stroke-width:4px"/><circle cx="14" cy="171.45" r="12" style="fill:none;stroke:#333334;stroke-linecap:round;stroke-miterlimit:10;stroke-width:4px"/><circle cx="171.45" cy="328.9" r="12" style="fill:none;stroke:#333334;stroke-linecap:round;stroke-miterlimit:10;stroke-width:4px"/><circle cx="171.45" cy="14" r="12" style="fill:none;stroke:#333334;stroke-linecap:round;stroke-miterlimit:10;stroke-width:4px"/><path d="M291.27,274.29a12,12,0,0,1-17,17" style="fill:none;stroke:#333334;stroke-linecap:round;stroke-miterlimit:10;stroke-width:4px"/><path d="M51.63,68.6a12,12,0,1,1,17-17c.17.17.33.33.48.51" style="fill:none;stroke:#333334;stroke-linecap:round;stroke-miterlimit:10;stroke-width:4px"/><path d="M68.6,291.27a12,12,0,0,1-17-17" style="fill:none;stroke:#333334;stroke-linecap:round;stroke-miterlimit:10;stroke-width:4px"/><path d="M274.29,51.63a12,12,0,0,1,17,17q-.25.25-.51.48" style="fill:none;stroke:#333334;stroke-linecap:round;stroke-miterlimit:10;stroke-width:4px"/></svg>