<svg xmlns="http://www.w3.org/2000/svg" viewBox="0 0 512 512"><title>eip_modules</title><line x1="202.59" y1="369.09" x2="208.59" y2="369.09" style="fill:none;stroke:#333334;stroke-miterlimit:10;stroke-width:4px"/><line x1="222.07" y1="369.09" x2="296.21" y2="369.09" style="fill:none;stroke:#333334;stroke-miterlimit:10;stroke-width:4px;stroke-dasharray:13.47952651977539,13.47952651977539"/><line x1="302.95" y1="369.09" x2="308.95" y2="369.09" style="fill:none;stroke:#333334;stroke-miterlimit:10;stroke-width:4px"/><line x1="131.47" y1="266.49" x2="134.47" y2="271.69" style="fill:none;stroke:#333334;stroke-miterlimit:10;stroke-width:4px"/><line x1="141.22" y1="283.37" x2="178.31" y2="347.61" style="fill:none;stroke:#333334;stroke-miterlimit:10;stroke-width:4px;stroke-dasharray:13.487751007080078,13.487751007080078"/><line x1="181.68" y1="353.45" x2="184.68" y2="358.65" style="fill:none;stroke:#333334;stroke-miterlimit:10;stroke-width:4px"/><line x1="184.68" y1="153.35" x2="181.68" y2="158.55" style="fill:none;stroke:#333334;stroke-miterlimit:10;stroke-width:4px"/><line x1="174.93" y1="170.23" x2="137.84" y2="234.47" style="fill:none;stroke:#333334;stroke-miterlimit:10;stroke-width:4px;stroke-dasharray:13.487560272216797,13.487560272216797"/><line x1="134.47" y1="240.31" x2="131.47" y2="245.51" style="fill:none;stroke:#333334;stroke-miterlimit:10;stroke-width:4px"/><line x1="308.95" y1="142.91" x2="302.95" y2="142.91" style="fill:none;stroke:#333334;stroke-miterlimit:10;stroke-width:4px"/><line x1="289.47" y1="142.91" x2="215.33" y2="142.91" style="fill:none;stroke:#333334;stroke-miterlimit:10;stroke-width:4px;stroke-dasharray:13.479527473449707,13.479527473449707"/><line x1="208.59" y1="142.91" x2="202.59" y2="142.91" style="fill:none;stroke:#333334;stroke-miterlimit:10;stroke-width:4px"/><line x1="380.52" y1="245.5" x2="377.52" y2="240.3" style="fill:none;stroke:#333334;stroke-miterlimit:10;stroke-width:4px"/><line x1="370.76" y1="228.59" x2="333.59" y2="164.2" style="fill:none;stroke:#333334;stroke-miterlimit:10;stroke-width:4px;stroke-dasharray:13.518477439880371,13.518477439880371"/><line x1="330.21" y1="158.35" x2="327.21" y2="153.15" style="fill:none;stroke:#333334;stroke-miterlimit:10;stroke-width:4px"/><line x1="327.2" y1="358.85" x2="330.2" y2="353.65" style="fill:none;stroke:#333334;stroke-miterlimit:10;stroke-width:4px"/><line x1="336.96" y1="341.95" x2="374.14" y2="277.55" style="fill:none;stroke:#333334;stroke-miterlimit:10;stroke-width:4px;stroke-dasharray:13.518770217895508,13.518770217895508"/><line x1="377.52" y1="271.7" x2="380.52" y2="266.5" style="fill:none;stroke:#333334;stroke-miterlimit:10;stroke-width:4px"/><polygon points="340.88 108.98 171.12 108.98 86.24 256 171.12 403.02 340.88 403.02 425.76 256 340.88 108.98" style="fill:none;stroke:#333334;stroke-miterlimit:10;stroke-width:4px"/><polygon points="303.65 173.47 208.35 173.47 160.7 256 208.35 338.53 303.65 338.53 351.3 256 303.65 173.47" style="fill:none;stroke:#333334;stroke-miterlimit:10;stroke-width:4px"/><circle cx="190.59" cy="142.91" r="12" style="fill:none;stroke:#333334;stroke-linecap:round;stroke-miterlimit:10;stroke-width:4px"/><circle cx="320.95" cy="142.91" r="12" style="fill:none;stroke:#333334;stroke-linecap:round;stroke-miterlimit:10;stroke-width:4px"/><circle cx="190.59" cy="369.09" r="12" style="fill:none;stroke:#333334;stroke-linecap:round;stroke-miterlimit:10;stroke-width:4px"/><circle cx="125.64" cy="256" r="12" style="fill:none;stroke:#333334;stroke-linecap:round;stroke-miterlimit:10;stroke-width:4px"/><circle cx="386.33" cy="256" r="12" style="fill:none;stroke:#333334;stroke-linecap:round;stroke-miterlimit:10;stroke-width:4px"/><circle cx="320.95" cy="369.09" r="12" style="fill:none;stroke:#333334;stroke-linecap:round;stroke-miterlimit:10;stroke-width:4px"/><line x1="374.33" y1="256" x2="300.98" y2="256" style="fill:none;stroke:#333334;stroke-miterlimit:10;stroke-width:4px"/><polygon points="314.23 239.64 316.96 242.57 302.51 256 316.96 269.43 314.23 272.36 296.64 256 314.23 239.64" style="fill:#333334"/><line x1="211.02" y1="256" x2="137.65" y2="256" style="fill:none;stroke:#333334;stroke-miterlimit:10;stroke-width:4px"/><polygon points="197.77 239.64 195.04 242.57 209.49 256 195.04 269.43 197.77 272.36 215.36 256 197.77 239.64" style="fill:#333334"/><line x1="315.16" y1="358.49" x2="279.31" y2="296.41" style="fill:none;stroke:#333334;stroke-miterlimit:10;stroke-width:4px"/><polygon points="300.11 299.71 298.94 303.54 280.08 297.74 275.68 316.97 271.78 316.07 277.15 292.65 300.11 299.71" style="fill:#333334"/><line x1="228.84" y1="208.98" x2="196.82" y2="153.51" style="fill:none;stroke:#333334;stroke-miterlimit:10;stroke-width:4px"/><polygon points="236.38 189.32 232.48 188.43 228.08 207.65 209.22 201.85 208.05 205.68 231.01 212.74 236.38 189.32" style="fill:#333334"/><line x1="232.66" y1="296.41" x2="196.82" y2="358.49" style="fill:none;stroke:#333334;stroke-miterlimit:10;stroke-width:4px"/><polygon points="211.86 299.71 213.03 303.54 231.89 297.74 236.29 316.97 240.19 316.07 234.82 292.65 211.86 299.71" style="fill:#333334"/><line x1="315.16" y1="153.51" x2="283.14" y2="208.97" style="fill:none;stroke:#333334;stroke-miterlimit:10;stroke-width:4px"/><polygon points="275.6 189.31 279.5 188.41 283.9 207.64 302.75 201.84 303.93 205.67 280.96 212.72 275.6 189.31" style="fill:#333334"/><path d="M286.49,227.31,256,219.53l-30.49,7.78s-1.36,24.51,4.28,42c0,0,3,8.76,26.21,23.15,23.2-14.39,26.21-23.15,26.21-23.15C287.85,251.82,286.49,227.31,286.49,227.31Z" style="fill:none;stroke:#333334;stroke-miterlimit:10;stroke-width:4px"/><line x1="256" y1="276.78" x2="256" y2="232.06" style="fill:none;stroke:#333334;stroke-miterlimit:10;stroke-width:6px;stroke-dasharray:6,8,1000"/></svg>