<svg xmlns="http://www.w3.org/2000/svg" viewBox="0 0 512 512"><title>eip_modules</title><polygon points="340.88 108.98 171.12 108.98 86.24 256 171.12 403.02 340.88 403.02 425.76 256 340.88 108.98" style="fill:none;stroke:#333334;stroke-miterlimit:10;stroke-width:4px"/><polyline points="180.28 160.98 125.42 256 152.07 302.16" style="fill:none;stroke:#333334;stroke-miterlimit:10;stroke-width:4px"/><polyline points="376.15 274.06 321.29 369.09 211.49 369.09" style="fill:none;stroke:#333334;stroke-miterlimit:10;stroke-width:4px"/><polyline points="298.17 142.91 321.29 142.91 376.15 237.94" style="fill:none;stroke:#333334;stroke-miterlimit:10;stroke-width:4px"/><circle cx="286.17" cy="142.91" r="12" style="fill:none;stroke:#333334;stroke-linecap:round;stroke-miterlimit:10;stroke-width:4px"/><circle cx="158.06" cy="312.56" r="12" style="fill:none;stroke:#333334;stroke-linecap:round;stroke-miterlimit:10;stroke-width:4px"/><path d="M216.88,278.59l-5.19,3" style="fill:none;stroke:#333334;stroke-miterlimit:10;stroke-width:4px"/><path d="M204.9,285.51l-10.19,5.88" style="fill:none;stroke:#333334;stroke-miterlimit:10;stroke-width:4px;stroke-dasharray:7.841231346130371,7.841231346130371"/><path d="M191.31,293.35l-5.19,3-3-5.19" style="fill:none;stroke:#333334;stroke-miterlimit:10;stroke-width:4px"/><line x1="177.35" y1="281.17" x2="168.7" y2="266.19" style="fill:none;stroke:#333334;stroke-miterlimit:10;stroke-width:4px;stroke-dasharray:11.531949043273926,11.531949043273926"/><polyline points="165.82 261.2 162.82 256 165.82 250.8" style="fill:none;stroke:#333334;stroke-miterlimit:10;stroke-width:4px"/><line x1="171.62" y1="240.76" x2="203.51" y2="185.52" style="fill:none;stroke:#333334;stroke-miterlimit:10;stroke-width:4px;stroke-dasharray:11.597175598144531,11.597175598144531"/><polyline points="206.41 180.5 209.41 175.3 215.41 175.3" style="fill:none;stroke:#333334;stroke-miterlimit:10;stroke-width:4px"/><line x1="226.94" y1="175.3" x2="244.23" y2="175.3" style="fill:none;stroke:#333334;stroke-miterlimit:10;stroke-width:4px;stroke-dasharray:11.530037879943848,11.530037879943848"/><path d="M250,175.3h6v-6" style="fill:none;stroke:#333334;stroke-miterlimit:10;stroke-width:4px"/><path d="M256,162.51v-10.2" style="fill:none;stroke:#333334;stroke-miterlimit:10;stroke-width:4px;stroke-dasharray:6.79771089553833,6.79771089553833"/><path d="M256,148.91v-6h-6" style="fill:none;stroke:#333334;stroke-miterlimit:10;stroke-width:4px"/><line x1="239.19" y1="142.91" x2="222.96" y2="142.91" style="fill:none;stroke:#333334;stroke-miterlimit:10;stroke-width:4px;stroke-dasharray:10.814658164978027,10.814658164978027"/><line x1="217.56" y1="142.91" x2="211.56" y2="142.91" style="fill:none;stroke:#333334;stroke-miterlimit:10;stroke-width:4px"/><polygon points="197.22 271.05 196.32 274.95 215.55 279.36 209.75 298.21 213.58 299.38 220.63 276.42 197.22 271.05" style="fill:#333334"/><line x1="201.14" y1="351.02" x2="204.14" y2="345.83" style="fill:none;stroke:#333334;stroke-miterlimit:10;stroke-width:4px"/><polyline points="206.41 341.89 209.41 336.7 215.41 336.7" style="fill:none;stroke:#333334;stroke-miterlimit:10;stroke-width:4px"/><line x1="227.01" y1="336.7" x2="290.79" y2="336.7" style="fill:none;stroke:#333334;stroke-miterlimit:10;stroke-width:4px;stroke-dasharray:11.597175598144531,11.597175598144531"/><polyline points="296.59 336.7 302.59 336.7 305.59 331.5" style="fill:none;stroke:#333334;stroke-miterlimit:10;stroke-width:4px"/><line x1="311.39" y1="321.46" x2="343.28" y2="266.22" style="fill:none;stroke:#333334;stroke-miterlimit:10;stroke-width:4px;stroke-dasharray:11.597175598144531,11.597175598144531"/><polyline points="346.18 261.2 349.18 256 346.18 250.8" style="fill:none;stroke:#333334;stroke-miterlimit:10;stroke-width:4px"/><line x1="340.41" y1="240.82" x2="331.77" y2="225.84" style="fill:none;stroke:#333334;stroke-miterlimit:10;stroke-width:4px;stroke-dasharray:11.531944274902344,11.531944274902344"/><polyline points="328.88 220.84 325.88 215.65 320.69 218.65" style="fill:none;stroke:#333334;stroke-miterlimit:10;stroke-width:4px"/><line x1="313.9" y1="222.57" x2="303.71" y2="228.45" style="fill:none;stroke:#333334;stroke-miterlimit:10;stroke-width:4px;stroke-dasharray:7.840256690979004,7.840256690979004"/><line x1="300.32" y1="230.41" x2="295.12" y2="233.41" style="fill:none;stroke:#333334;stroke-miterlimit:10;stroke-width:4px"/><polygon points="298.42 212.62 302.25 213.79 296.45 232.64 315.68 237.04 314.78 240.94 291.36 235.57 298.42 212.62" style="fill:#333334"/><circle cx="190.7" cy="142.91" r="20.85" style="fill:none;stroke:#333334;stroke-miterlimit:10;stroke-width:4px"/><line x1="190.7" y1="157.33" x2="190.7" y2="129.5" style="fill:none;stroke:#333334;stroke-miterlimit:10;stroke-width:6px;stroke-dasharray:6,6,1000"/><circle cx="190.71" cy="369.09" r="20.85" style="fill:none;stroke:#333334;stroke-miterlimit:10;stroke-width:4px"/><line x1="190.71" y1="383.51" x2="190.71" y2="355.68" style="fill:none;stroke:#333334;stroke-miterlimit:10;stroke-width:6px;stroke-dasharray:6,6,1000"/><circle cx="386.58" cy="256" r="20.85" style="fill:none;stroke:#333334;stroke-miterlimit:10;stroke-width:4px"/><line x1="386.58" y1="270.42" x2="386.58" y2="242.59" style="fill:none;stroke:#333334;stroke-miterlimit:10;stroke-width:6px;stroke-dasharray:6,6,1000"/><polygon points="269.74 232.2 242.26 232.2 228.52 256 242.26 279.8 269.74 279.8 283.48 256 269.74 232.2" style="fill:none;stroke:#333334;stroke-miterlimit:10;stroke-width:4px"/><polygon points="264.33 241.58 247.67 241.58 239.35 256 247.67 270.42 264.33 270.42 272.65 256 264.33 241.58" style="fill:none;stroke:#333334;stroke-miterlimit:10;stroke-width:4px"/></svg>