<svg xmlns="http://www.w3.org/2000/svg" viewBox="0 0 344.15 298.04"><title>alpha-blue-logomark</title><line x1="118.67" y1="262.11" x2="124.67" y2="262.11" style="fill:none;stroke:#333334;stroke-miterlimit:10;stroke-width:4px"/><line x1="138.15" y1="262.11" x2="212.28" y2="262.11" style="fill:none;stroke:#333334;stroke-miterlimit:10;stroke-width:4px;stroke-dasharray:13.47952651977539,13.47952651977539"/><line x1="219.02" y1="262.11" x2="225.02" y2="262.11" style="fill:none;stroke:#333334;stroke-miterlimit:10;stroke-width:4px"/><line x1="47.55" y1="159.51" x2="50.55" y2="164.71" style="fill:none;stroke:#333334;stroke-miterlimit:10;stroke-width:4px"/><line x1="57.29" y1="176.39" x2="94.38" y2="240.63" style="fill:none;stroke:#333334;stroke-miterlimit:10;stroke-width:4px;stroke-dasharray:13.487751007080078,13.487751007080078"/><line x1="97.75" y1="246.47" x2="100.75" y2="251.67" style="fill:none;stroke:#333334;stroke-miterlimit:10;stroke-width:4px"/><line x1="100.75" y1="46.37" x2="97.75" y2="51.57" style="fill:none;stroke:#333334;stroke-miterlimit:10;stroke-width:4px"/><line x1="91.01" y1="63.25" x2="53.92" y2="127.49" style="fill:none;stroke:#333334;stroke-miterlimit:10;stroke-width:4px;stroke-dasharray:13.487560272216797,13.487560272216797"/><line x1="50.55" y1="133.33" x2="47.55" y2="138.53" style="fill:none;stroke:#333334;stroke-miterlimit:10;stroke-width:4px"/><line x1="225.02" y1="35.93" x2="219.02" y2="35.93" style="fill:none;stroke:#333334;stroke-miterlimit:10;stroke-width:4px"/><line x1="205.54" y1="35.93" x2="131.41" y2="35.93" style="fill:none;stroke:#333334;stroke-miterlimit:10;stroke-width:4px;stroke-dasharray:13.479527473449707,13.479527473449707"/><line x1="124.67" y1="35.93" x2="118.67" y2="35.93" style="fill:none;stroke:#333334;stroke-miterlimit:10;stroke-width:4px"/><line x1="296.59" y1="138.52" x2="293.59" y2="133.32" style="fill:none;stroke:#333334;stroke-miterlimit:10;stroke-width:4px"/><line x1="286.83" y1="121.61" x2="249.66" y2="57.22" style="fill:none;stroke:#333334;stroke-miterlimit:10;stroke-width:4px;stroke-dasharray:13.518477439880371,13.518477439880371"/><line x1="246.28" y1="51.37" x2="243.28" y2="46.17" style="fill:none;stroke:#333334;stroke-miterlimit:10;stroke-width:4px"/><line x1="243.28" y1="251.87" x2="246.28" y2="246.67" style="fill:none;stroke:#333334;stroke-miterlimit:10;stroke-width:4px"/><line x1="253.04" y1="234.97" x2="290.21" y2="170.57" style="fill:none;stroke:#333334;stroke-miterlimit:10;stroke-width:4px;stroke-dasharray:13.518770217895508,13.518770217895508"/><line x1="293.59" y1="164.72" x2="296.59" y2="159.52" style="fill:none;stroke:#333334;stroke-miterlimit:10;stroke-width:4px"/><polygon points="256.95 2 87.19 2 2.31 149.02 87.19 296.04 256.95 296.04 341.84 149.02 256.95 2" style="fill:none;stroke:#333334;stroke-miterlimit:10;stroke-width:4px"/><polygon points="219.72 66.49 124.42 66.49 76.77 149.02 124.42 231.55 219.72 231.55 267.38 149.02 219.72 66.49" style="fill:none;stroke:#333334;stroke-miterlimit:10;stroke-width:4px"/><circle cx="106.67" cy="35.93" r="12" style="fill:none;stroke:#333334;stroke-linecap:round;stroke-miterlimit:10;stroke-width:4px"/><circle cx="237.02" cy="35.93" r="12" style="fill:none;stroke:#333334;stroke-linecap:round;stroke-miterlimit:10;stroke-width:4px"/><circle cx="106.67" cy="262.11" r="12" style="fill:none;stroke:#333334;stroke-linecap:round;stroke-miterlimit:10;stroke-width:4px"/><circle cx="41.71" cy="149.02" r="12" style="fill:none;stroke:#333334;stroke-linecap:round;stroke-miterlimit:10;stroke-width:4px"/><circle cx="302.4" cy="149.02" r="12" style="fill:none;stroke:#333334;stroke-linecap:round;stroke-miterlimit:10;stroke-width:4px"/><circle cx="237.02" cy="262.11" r="12" style="fill:none;stroke:#333334;stroke-linecap:round;stroke-miterlimit:10;stroke-width:4px"/><line x1="290.4" y1="149.02" x2="217.05" y2="149.02" style="fill:none;stroke:#333334;stroke-miterlimit:10;stroke-width:4px"/><polygon points="230.31 132.66 233.04 135.59 218.59 149.02 233.04 162.45 230.31 165.38 212.72 149.02 230.31 132.66" style="fill:#333334"/><line x1="127.09" y1="149.02" x2="53.72" y2="149.02" style="fill:none;stroke:#333334;stroke-miterlimit:10;stroke-width:4px"/><polygon points="113.84 132.66 111.11 135.59 125.56 149.02 111.11 162.45 113.84 165.38 131.43 149.02 113.84 132.66" style="fill:#333334"/><line x1="231.23" y1="251.51" x2="195.39" y2="189.43" style="fill:none;stroke:#333334;stroke-miterlimit:10;stroke-width:4px"/><polygon points="216.18 192.73 215.01 196.56 196.16 190.76 191.75 209.99 187.85 209.09 193.22 185.68 216.18 192.73" style="fill:#333334"/><line x1="144.92" y1="102" x2="112.89" y2="46.53" style="fill:none;stroke:#333334;stroke-miterlimit:10;stroke-width:4px"/><polygon points="152.46 82.34 148.55 81.44 144.15 100.67 125.3 94.87 124.12 98.7 147.09 105.76 152.46 82.34" style="fill:#333334"/><line x1="148.73" y1="189.43" x2="112.89" y2="251.51" style="fill:none;stroke:#333334;stroke-miterlimit:10;stroke-width:4px"/><polygon points="127.94 192.73 129.11 196.56 147.96 190.76 152.37 209.99 156.27 209.09 150.9 185.68 127.94 192.73" style="fill:#333334"/><line x1="231.23" y1="46.53" x2="199.21" y2="101.99" style="fill:none;stroke:#333334;stroke-miterlimit:10;stroke-width:4px"/><polygon points="191.67 82.33 195.57 81.43 199.97 100.66 218.83 94.86 220 98.69 197.04 105.74 191.67 82.33" style="fill:#333334"/><path d="M202.56,120.33l-30.49-7.78-30.49,7.78s-1.36,24.51,4.28,42c0,0,3,8.76,26.21,23.15,23.2-14.39,26.21-23.15,26.21-23.15C203.93,144.84,202.56,120.33,202.56,120.33Z" style="fill:none;stroke:#333334;stroke-miterlimit:10;stroke-width:4px"/><line x1="172.07" y1="169.8" x2="172.07" y2="125.08" style="fill:none;stroke:#333334;stroke-miterlimit:10;stroke-width:6px;stroke-dasharray:6,8,1000"/></svg>