<svg xmlns="http://www.w3.org/2000/svg" viewBox="0 0 512 512"><title>eip_modules</title><path d="M394.47,314.83a150.48,150.48,0,0,1-276.81.31" style="fill:none;stroke:#333334;stroke-miterlimit:10;stroke-width:4px"/><path d="M110.13,292.84a150.41,150.41,0,1,1,291.77-.12" style="fill:none;stroke:#333334;stroke-miterlimit:10;stroke-width:4px"/><ellipse cx="256" cy="256" rx="90.66" ry="150.41" style="fill:none;stroke:#333334;stroke-miterlimit:10;stroke-width:4px"/><line x1="256" y1="332.79" x2="256" y2="406.41" style="fill:none;stroke:#333334;stroke-miterlimit:10;stroke-width:4px"/><line x1="256" y1="105.59" x2="256" y2="309.09" style="fill:none;stroke:#333334;stroke-miterlimit:10;stroke-width:4px"/><path d="M406.41,256c0,19.53-67.34,35.37-150.41,35.37S105.59,275.53,105.59,256" style="fill:none;stroke:#333334;stroke-miterlimit:10;stroke-width:4px"/><path d="M378,167.9a8.42,8.42,0,0,1,1.93,5.14c0,16.08-55.47,29.13-123.89,29.13s-123.89-13-123.89-29.13a8.65,8.65,0,0,1,2.11-5.38" style="fill:none;stroke:#333334;stroke-miterlimit:10;stroke-width:4px"/><path d="M377.52,344.67C366.25,358,316.13,368.1,256,368.1c-59.92,0-109.91-10-121.4-23.3" style="fill:none;stroke:#333334;stroke-miterlimit:10;stroke-width:4px"/><path d="M101.41,212.33q-2.89,1-5.64,2" style="fill:none;stroke:#333334;stroke-miterlimit:10;stroke-width:4px"/><path d="M86.77,218.07c-12.34,5.43-22.09,11.48-28.71,18" style="fill:none;stroke:#333334;stroke-miterlimit:10;stroke-width:4px;stroke-dasharray:9.724298477172852,9.724298477172852"/><path d="M54.78,239.62a34,34,0,0,0-3.4,4.93" style="fill:none;stroke:#333334;stroke-miterlimit:10;stroke-width:4px"/><circle cx="48.2" cy="256" r="12" style="fill:none;stroke:#333334;stroke-miterlimit:10;stroke-width:4px"/><path d="M109.89,220.22a12.08,12.08,0,1,1,7.59-22.86" style="fill:none;stroke:#333334;stroke-miterlimit:10;stroke-width:4px"/><path d="M401.54,220.22A12.08,12.08,0,1,0,394,197.36" style="fill:none;stroke:#333334;stroke-miterlimit:10;stroke-width:4px"/><path d="M460.49,244.32a34.39,34.39,0,0,0-3.44-4.9" style="fill:none;stroke:#333334;stroke-miterlimit:10;stroke-width:4px"/><path d="M450.05,232.57c-7.36-6-17.47-11.62-29.86-16.64" style="fill:none;stroke:#333334;stroke-miterlimit:10;stroke-width:4px;stroke-dasharray:9.802557945251465,9.802557945251465"/><path d="M415.62,214.15q-2.76-1-5.65-2" style="fill:none;stroke:#333334;stroke-miterlimit:10;stroke-width:4px"/><path d="M410,299.89q2.89-1,5.65-2" style="fill:none;stroke:#333334;stroke-miterlimit:10;stroke-width:4px"/><path d="M424.66,294.19c12.36-5.4,22.18-11.41,28.89-17.86" style="fill:none;stroke:#333334;stroke-miterlimit:10;stroke-width:4px;stroke-dasharray:9.750490188598633,9.750490188598633"/><path d="M456.89,272.78a34.51,34.51,0,0,0,3.47-4.88" style="fill:none;stroke:#333334;stroke-miterlimit:10;stroke-width:4px"/><path d="M268.28,321.24c2,0,4-.08,6-.13" style="fill:none;stroke:#333334;stroke-miterlimit:10;stroke-width:4px"/><path d="M286.24,320.67c32.75-1.5,63-5.41,88.95-11.13" style="fill:none;stroke:#333334;stroke-miterlimit:10;stroke-width:4px;stroke-dasharray:11.965818405151367,11.965818405151367"/><path d="M381,308.21c2-.47,3.92-.94,5.83-1.43" style="fill:none;stroke:#333334;stroke-miterlimit:10;stroke-width:4px"/><path d="M124.52,306.61q2.87.75,5.82,1.45" style="fill:none;stroke:#333334;stroke-miterlimit:10;stroke-width:4px"/><path d="M142.14,310.68c26.43,5.46,57.05,9.07,90,10.25" style="fill:none;stroke:#333334;stroke-miterlimit:10;stroke-width:4px;stroke-dasharray:12.092120170593262,12.092120170593262"/><path d="M238.2,321.12c2,.05,4,.1,6,.13" style="fill:none;stroke:#333334;stroke-miterlimit:10;stroke-width:4px"/><path d="M51.37,267.44a34.43,34.43,0,0,0,3.41,4.94" style="fill:none;stroke:#333334;stroke-miterlimit:10;stroke-width:4px"/><path d="M61.7,279.23c7.3,6,17.35,11.63,29.67,16.66" style="fill:none;stroke:#333334;stroke-miterlimit:10;stroke-width:4px;stroke-dasharray:9.756525039672852,9.756525039672852"/><path d="M95.92,297.67q2.74,1.05,5.64,2.06" style="fill:none;stroke:#333334;stroke-miterlimit:10;stroke-width:4px"/><circle cx="463.8" cy="256" r="12" style="fill:none;stroke:#333334;stroke-miterlimit:10;stroke-width:4px"/><circle cx="256.06" cy="321.36" r="12" style="fill:none;stroke:#333334;stroke-miterlimit:10;stroke-width:4px"/><circle cx="398.6" cy="304.14" r="12" style="fill:none;stroke:#333334;stroke-miterlimit:10;stroke-width:4px"/><circle cx="112.83" cy="304.14" r="12" style="fill:none;stroke:#333334;stroke-miterlimit:10;stroke-width:4px"/></svg>