<svg xmlns="http://www.w3.org/2000/svg" viewBox="0 0 512 512"><title>eip_modules</title><circle cx="256" cy="257.39" r="108.42" style="fill:none;stroke:#333334;stroke-miterlimit:10;stroke-width:4px;stroke-dasharray:12.165443420410156,12.165443420410156"/><polyline points="221.93 236.22 198.74 199.06 235.9 222.25" style="fill:none;stroke:#333334;stroke-miterlimit:10;stroke-width:4px"/><polyline points="235.9 290.39 198.74 313.58 221.93 276.42" style="fill:none;stroke:#333334;stroke-miterlimit:10;stroke-width:4px"/><polyline points="290.07 276.42 313.26 313.58 276.1 290.39" style="fill:none;stroke:#333334;stroke-miterlimit:10;stroke-width:4px"/><polyline points="276.1 222.25 313.26 199.06 290.07 236.22" style="fill:none;stroke:#333334;stroke-miterlimit:10;stroke-width:4px"/><polygon points="278.73 279.04 256 377.24 233.28 279.04 135.08 256.32 233.28 233.59 256 135.4 278.73 233.59 376.92 256.32 278.73 279.04" style="fill:none;stroke:#333334;stroke-miterlimit:10;stroke-width:4px"/><line x1="256" y1="267.96" x2="256" y2="377.24" style="fill:none;stroke:#333334;stroke-miterlimit:10;stroke-width:4px"/><line x1="256" y1="135.4" x2="256" y2="243.88" style="fill:none;stroke:#333334;stroke-miterlimit:10;stroke-width:4px"/><line x1="244.42" y1="256.32" x2="135.08" y2="256.32" style="fill:none;stroke:#333334;stroke-miterlimit:10;stroke-width:4px"/><line x1="376.92" y1="256.32" x2="268.57" y2="256.32" style="fill:none;stroke:#333334;stroke-miterlimit:10;stroke-width:4px"/><line x1="264.34" y1="264.66" x2="278.72" y2="279.04" style="fill:none;stroke:#333334;stroke-miterlimit:10;stroke-width:4px"/><line x1="233.23" y1="233.55" x2="247.62" y2="247.93" style="fill:none;stroke:#333334;stroke-miterlimit:10;stroke-width:4px"/><line x1="247.62" y1="264.66" x2="233.23" y2="279.04" style="fill:none;stroke:#333334;stroke-miterlimit:10;stroke-width:4px"/><line x1="278.72" y1="233.55" x2="264.34" y2="247.93" style="fill:none;stroke:#333334;stroke-miterlimit:10;stroke-width:4px"/><circle cx="256.46" cy="255.85" r="12" style="fill:none;stroke:#333334;stroke-miterlimit:10;stroke-width:4px"/><path d="M268,99.32A157.47,157.47,0,0,1,413,244" style="fill:none;stroke:#333334;stroke-miterlimit:10;stroke-width:4px"/><path d="M99,244A157.47,157.47,0,0,1,244,99.32" style="fill:none;stroke:#333334;stroke-miterlimit:10;stroke-width:4px"/><path d="M244,413.32A157.48,157.48,0,0,1,99,268" style="fill:none;stroke:#333334;stroke-miterlimit:10;stroke-width:4px"/><path d="M413,268A157.49,157.49,0,0,1,268,413.32" style="fill:none;stroke:#333334;stroke-miterlimit:10;stroke-width:4px"/><circle cx="413.45" cy="256" r="12" style="fill:none;stroke:#333334;stroke-linecap:round;stroke-miterlimit:10;stroke-width:4px"/><circle cx="98.55" cy="256" r="12" style="fill:none;stroke:#333334;stroke-linecap:round;stroke-miterlimit:10;stroke-width:4px"/><circle cx="256" cy="413.45" r="12" style="fill:none;stroke:#333334;stroke-linecap:round;stroke-miterlimit:10;stroke-width:4px"/><circle cx="256" cy="98.55" r="12" style="fill:none;stroke:#333334;stroke-linecap:round;stroke-miterlimit:10;stroke-width:4px"/><path d="M375.82,358.85a12,12,0,1,1-17,17" style="fill:none;stroke:#333334;stroke-linecap:round;stroke-miterlimit:10;stroke-width:4px"/><path d="M136.18,153.15a12,12,0,0,1,17-17q.25.25.48.51" style="fill:none;stroke:#333334;stroke-linecap:round;stroke-miterlimit:10;stroke-width:4px"/><path d="M153.15,375.82a12,12,0,1,1-17-17" style="fill:none;stroke:#333334;stroke-linecap:round;stroke-miterlimit:10;stroke-width:4px"/><path d="M358.85,136.18a12,12,0,1,1,17,17q-.26.25-.51.48" style="fill:none;stroke:#333334;stroke-linecap:round;stroke-miterlimit:10;stroke-width:4px"/></svg>