<svg xmlns="http://www.w3.org/2000/svg" viewBox="0 0 1500 500"><defs><style>.a{fill:#b7b7b9;}.b{fill:#27b4e8;}.c{fill:#1d75bc;}.d{fill:#fff;}</style></defs><title>191103-eip-logo</title><path class="a" d="M378.41,276.71a6.76,6.76,0,1,0,7.95-5.31,6.76,6.76,0,0,0-7.95,5.31"/><path class="a" d="M358,326.06a6.76,6.76,0,1,0,9.37-1.86,6.76,6.76,0,0,0-9.37,1.86"/><path class="b" d="M348.59,307a12.67,12.67,0,1,0-6.86-16.56A12.67,12.67,0,0,0,348.59,307"/><path class="c" d="M328.64,233.1A16.9,16.9,0,1,0,345.55,250a16.9,16.9,0,0,0-16.91-16.9"/><path class="a" d="M328.46,215.07a6.77,6.77,0,1,0-3.66,8.84,6.77,6.77,0,0,0,3.66-8.84"/><path class="a" d="M316,279.75a6.77,6.77,0,1,0,8.84-3.66,6.78,6.78,0,0,0-8.84,3.66"/><path class="c" d="M323.61,343.82a10.14,10.14,0,1,0,0-14.34,10.14,10.14,0,0,0,0,14.34"/><path class="a" d="M318.33,373.21a6.76,6.76,0,1,0,1.86-9.38,6.76,6.76,0,0,0-1.86,9.38"/><path class="c" d="M291.94,321.71a16.9,16.9,0,1,0,0-23.9,16.9,16.9,0,0,0,0,23.9"/><path class="a" d="M273.89,178.17a6.76,6.76,0,1,0-3.66-8.83,6.76,6.76,0,0,0,3.66,8.83"/><path class="a" d="M273.89,321.83a6.76,6.76,0,1,0,8.83,3.66,6.76,6.76,0,0,0-8.83-3.66"/><path class="b" d="M286.13,218.88a12.68,12.68,0,1,0,16.56,6.86,12.68,12.68,0,0,0-16.56-6.86"/><path class="b" d="M295.83,257.69a12.68,12.68,0,1,0,6.86,16.57,12.67,12.67,0,0,0-6.86-16.57"/><path class="b" d="M277.7,364.16a12.67,12.67,0,1,0,6.86-16.56,12.67,12.67,0,0,0-6.86,16.56"/><path class="a" d="M265.53,392.23a6.76,6.76,0,1,0,5.31-8,6.76,6.76,0,0,0-5.31,8"/><path class="b" d="M268.39,308.56a12.68,12.68,0,1,0-16.56-6.86,12.68,12.68,0,0,0,16.56,6.86"/><path class="c" d="M234,372.54a10.15,10.15,0,1,0,10.14-10.14A10.14,10.14,0,0,0,234,372.54"/><path class="c" d="M227.23,334.51a16.91,16.91,0,1,0,16.9-16.9,16.9,16.9,0,0,0-16.9,16.9"/><path class="b" d="M219.88,308.56A12.68,12.68,0,1,0,213,292a12.67,12.67,0,0,0,6.86,16.57"/><path class="b" d="M192.44,242.31a12.68,12.68,0,1,0-6.86-16.57,12.67,12.67,0,0,0,6.86,16.57"/><path class="b" d="M185.58,274.26a12.68,12.68,0,1,0,6.86-16.57,12.69,12.69,0,0,0-6.86,16.57"/><path class="a" d="M205.55,174.51a6.76,6.76,0,1,0,3.66-8.83,6.76,6.76,0,0,0-3.66,8.83"/><path class="a" d="M214.38,323.16A6.76,6.76,0,1,0,218,332a6.76,6.76,0,0,0-3.66-8.84"/><path class="a" d="M209.47,389.59a6.77,6.77,0,1,0,7.95-5.31,6.77,6.77,0,0,0-7.95,5.31"/><path class="b" d="M187.15,354.46a12.67,12.67,0,1,0,16.56-6.86,12.67,12.67,0,0,0-16.56,6.86"/><path class="c" d="M172.42,321.71a16.9,16.9,0,1,0,0-23.9,16.91,16.91,0,0,0,0,23.9"/><path class="c" d="M176.53,250a16.91,16.91,0,1,0-16.91,16.9A16.91,16.91,0,0,0,176.53,250"/><path class="a" d="M172.3,220.25a6.76,6.76,0,1,0-8.83,3.66,6.77,6.77,0,0,0,8.83-3.66"/><path class="a" d="M159.81,284.93a6.76,6.76,0,1,0,3.66-8.84,6.76,6.76,0,0,0-3.66,8.84"/><path class="a" d="M158.69,365.7a6.76,6.76,0,1,0,9.38-1.87,6.77,6.77,0,0,0-9.38,1.87"/><path class="c" d="M150.31,329.48a10.14,10.14,0,1,0,14.35,0,10.14,10.14,0,0,0-14.35,0"/><path class="b" d="M139.68,307a12.68,12.68,0,1,0-16.57-6.86A12.68,12.68,0,0,0,139.68,307"/><path class="a" d="M119.06,333.57a6.76,6.76,0,1,0,1.86-9.37,6.75,6.75,0,0,0-1.86,9.37"/><path class="a" d="M109.86,223.29a6.76,6.76,0,1,0-8,5.31,6.76,6.76,0,0,0,8-5.31"/><path class="a" d="M109.86,276.71a6.76,6.76,0,1,0-5.31,8,6.76,6.76,0,0,0,5.31-8"/><path class="c" d="M121.59,239.86A10.14,10.14,0,1,0,131.73,250a10.14,10.14,0,0,0-10.14-10.14"/><path class="a" d="M130.3,173.94a6.76,6.76,0,1,0-9.38,1.86,6.76,6.76,0,0,0,9.38-1.86"/><path class="b" d="M139.68,193a12.68,12.68,0,1,0,6.86,16.56A12.68,12.68,0,0,0,139.68,193"/><path class="c" d="M164.66,156.18a10.14,10.14,0,1,0,0,14.34,10.15,10.15,0,0,0,0-14.34"/><path class="a" d="M169.94,126.79a6.76,6.76,0,1,0-1.87,9.38,6.77,6.77,0,0,0,1.87-9.38"/><path class="c" d="M196.33,178.29a16.9,16.9,0,1,0,0,23.9,16.91,16.91,0,0,0,0-23.9"/><path class="b" d="M210.57,135.84a12.67,12.67,0,1,0-6.86,16.56,12.67,12.67,0,0,0,6.86-16.56"/><path class="a" d="M222.74,107.77a6.77,6.77,0,1,0-5.32,8,6.76,6.76,0,0,0,5.32-8"/><path class="b" d="M219.88,191.44a12.68,12.68,0,1,0,16.56,6.86,12.68,12.68,0,0,0-16.56-6.86"/><path class="c" d="M254.28,127.46a10.15,10.15,0,1,0-10.15,10.14,10.15,10.15,0,0,0,10.15-10.14"/><path class="c" d="M261,165.49a16.91,16.91,0,1,0-16.91,16.9A16.9,16.9,0,0,0,261,165.49"/><path class="b" d="M268.39,191.44A12.68,12.68,0,1,0,275.25,208a12.67,12.67,0,0,0-6.86-16.57"/><path class="a" d="M278.79,110.41a6.76,6.76,0,1,0-8,5.31,6.76,6.76,0,0,0,8-5.31"/><path class="b" d="M301.12,145.54a12.67,12.67,0,1,0-16.56,6.86,12.67,12.67,0,0,0,16.56-6.86"/><path class="c" d="M315.84,178.29a16.9,16.9,0,1,0,0,23.9,16.9,16.9,0,0,0,0-23.9"/><path class="a" d="M329.57,134.3a6.76,6.76,0,1,0-9.38,1.87,6.76,6.76,0,0,0,9.38-1.87"/><path class="c" d="M338,170.52a10.14,10.14,0,1,0-14.34,0,10.14,10.14,0,0,0,14.34,0"/><path class="b" d="M348.59,193a12.67,12.67,0,1,0,16.56,6.86A12.67,12.67,0,0,0,348.59,193"/><path class="a" d="M369.21,166.43a6.76,6.76,0,1,0-1.87,9.37,6.76,6.76,0,0,0,1.87-9.37"/><path class="c" d="M376.81,250a10.14,10.14,0,1,0-10.14,10.14A10.14,10.14,0,0,0,376.81,250"/><path class="a" d="M391.67,220.65a6.76,6.76,0,1,0-5.31,7.95,6.76,6.76,0,0,0,5.31-7.95"/><path class="d" d="M576.4,316.88v15h-116v-164H572.88v15H477.75v58.34h84.82V256H477.75v60.92Z"/><path class="d" d="M689.8,215.54a56.05,56.05,0,0,1,22,22.14q8,14.3,8,32.57,0,18.51-8,32.81a56.35,56.35,0,0,1-21.91,22.14,63.13,63.13,0,0,1-31.51,7.85,58.3,58.3,0,0,1-27.07-6.21,51.27,51.27,0,0,1-19.8-18.16v68.65H594.9V208.62h15.94V233a51.24,51.24,0,0,1,19.8-18.74,58.13,58.13,0,0,1,27.77-6.56A63.21,63.21,0,0,1,689.8,215.54Zm-9.13,96.77a42.18,42.18,0,0,0,16.52-17,51.75,51.75,0,0,0,6-25.07,51.06,51.06,0,0,0-6-24.95,43.2,43.2,0,0,0-16.52-17,48.3,48.3,0,0,0-47,0,43.46,43.46,0,0,0-16.4,17,51.06,51.06,0,0,0-6,24.95,51.75,51.75,0,0,0,6,25.07,42.41,42.41,0,0,0,16.4,17,49.14,49.14,0,0,0,47,0Z"/><path class="d" d="M734.79,178.16a11.5,11.5,0,0,1-3.51-8.43,11.23,11.23,0,0,1,3.51-8.2,11.76,11.76,0,0,1,8.67-3.52,12,12,0,0,1,8.67,3.4,10.83,10.83,0,0,1,3.52,8.08,12.26,12.26,0,0,1-20.86,8.67Zm.24,30.46h16.63V331.88H735Z"/><path class="d" d="M865.18,215.54a56.05,56.05,0,0,1,22,22.14q8,14.3,8,32.57,0,18.51-8,32.81A56.35,56.35,0,0,1,865.3,325.2a63.17,63.17,0,0,1-31.52,7.85,58.23,58.23,0,0,1-27.06-6.21,51.2,51.2,0,0,1-19.8-18.16v68.65H770.28V208.62h15.94V233A51.17,51.17,0,0,1,806,214.25a58.09,58.09,0,0,1,27.76-6.56A63.22,63.22,0,0,1,865.18,215.54ZM856,312.31a42.11,42.11,0,0,0,16.52-17,51.65,51.65,0,0,0,6-25.07,51,51,0,0,0-6-24.95,43.14,43.14,0,0,0-16.52-17,48.28,48.28,0,0,0-47,0,43.39,43.39,0,0,0-16.4,17,51.06,51.06,0,0,0-6,24.95,51.75,51.75,0,0,0,6,25.07,42.35,42.35,0,0,0,16.4,17,49.13,49.13,0,0,0,47,0Z"/><path class="d" d="M1010.11,221.16q13.71,13.49,13.71,39.25v71.47h-16.64V262.05q0-19.22-9.61-29.29t-27.41-10.08q-19.92,0-31.52,11.84T927,267.2v64.68H910.41V158H927v72.17a45.18,45.18,0,0,1,18.75-16.64q11.94-5.85,27.41-5.85Q996.41,207.69,1010.11,221.16Z"/><path class="d" d="M1130.43,219.75q12.88,12.08,12.89,35.74v76.39h-15.94V312.66a38.08,38.08,0,0,1-16.52,15Q1100,333,1085,333.05q-20.62,0-32.8-9.84t-12.19-26q0-15.7,11.37-25.31t36.2-9.61h39.13v-7.5q0-15.93-8.9-24.25t-26-8.32a66.07,66.07,0,0,0-22.5,3.87,56.73,56.73,0,0,0-18.51,10.66l-7.5-12.42a66.53,66.53,0,0,1,22.5-12.3,87.51,87.51,0,0,1,27.65-4.33Q1117.53,207.69,1130.43,219.75Zm-18.75,93.73a38.41,38.41,0,0,0,15-18.63V274.7H1088q-31.63,0-31.64,22,0,10.78,8.21,17t23,6.21Q1101.61,319.93,1111.68,313.48Z"/><path class="d" d="M1260.13,221.16q13.69,13.49,13.7,39.25v71.47H1257.2V262.05q0-19.22-9.61-29.29t-27.42-10.08q-19.92,0-31.51,11.84t-11.6,32.68v64.68h-16.64V208.62h15.94v22.73a46.22,46.22,0,0,1,18.86-17.45q12.06-6.21,28-6.21Q1246.41,207.69,1260.13,221.16Zm141.41-12.54-61.63,138q-7.5,17.34-17.34,24.6t-23.67,7.27a48.11,48.11,0,0,1-16.63-2.82,36,36,0,0,1-13.36-8.43l7.73-12.42a30.68,30.68,0,0,0,22.5,9.37,22.68,22.68,0,0,0,14.41-4.68q6-4.69,11.13-15.94l5.39-11.95-55.07-123h17.34l46.4,104.74,46.39-104.74Z"/></svg>